<svg xmlns="http://www.w3.org/2000/svg" viewBox="0 0 256 256" width="256" height="256" role="img">
  <defs>
  <linearGradient id="g3" x1="0" y1="0" x2="1" y2="1">
    <stop offset="0" stop-color="#DCE9FF"/>
    <stop offset=".55" stop-color="#7FB0FF"/>
    <stop offset="1" stop-color="#2E7CF6"/>
  </linearGradient>
  <radialGradient id="s3" cx=".5" cy=".5" r=".5">
    <stop offset="0" stop-color="#7FB0FF" stop-opacity=".55"/>
    <stop offset="1" stop-color="#7FB0FF" stop-opacity="0"/>
  </radialGradient></defs>
  <circle cx="128" cy="118" r="112" fill="url(#s3)"/>
  
    <g opacity="0.55">
      <ellipse cx="128" cy="180" rx="62" ry="22" fill="#04101f" opacity=".5"/>
      <ellipse cx="128" cy="168" rx="62" ry="22" fill="url(#g3)"/>
      <ellipse cx="128" cy="168" rx="62" ry="22" fill="none" stroke="#fff" stroke-opacity=".35"/>
      <ellipse cx="128" cy="165" rx="38" ry="12" fill="#fff" fill-opacity=".14"/>
    </g>
    <g opacity="0.70">
      <ellipse cx="128" cy="154" rx="62" ry="22" fill="#04101f" opacity=".5"/>
      <ellipse cx="128" cy="142" rx="62" ry="22" fill="url(#g3)"/>
      <ellipse cx="128" cy="142" rx="62" ry="22" fill="none" stroke="#fff" stroke-opacity=".35"/>
      <ellipse cx="128" cy="139" rx="38" ry="12" fill="#fff" fill-opacity=".14"/>
    </g>
    <g opacity="0.85">
      <ellipse cx="128" cy="128" rx="62" ry="22" fill="#04101f" opacity=".5"/>
      <ellipse cx="128" cy="116" rx="62" ry="22" fill="url(#g3)"/>
      <ellipse cx="128" cy="116" rx="62" ry="22" fill="none" stroke="#fff" stroke-opacity=".35"/>
      <ellipse cx="128" cy="113" rx="38" ry="12" fill="#fff" fill-opacity=".14"/>
    </g>
    <g opacity="1.00">
      <ellipse cx="128" cy="102" rx="62" ry="22" fill="#04101f" opacity=".5"/>
      <ellipse cx="128" cy="90" rx="62" ry="22" fill="url(#g3)"/>
      <ellipse cx="128" cy="90" rx="62" ry="22" fill="none" stroke="#fff" stroke-opacity=".35"/>
      <ellipse cx="128" cy="87" rx="38" ry="12" fill="#fff" fill-opacity=".14"/>
    </g>
  <g transform="translate(128 90)">
    <path d="M6-30 -12 2h10l-6 26L18-6H7z" fill="#071321" fill-opacity=".65"/>
  </g>
</svg>
