<svg xmlns="http://www.w3.org/2000/svg" viewBox="0 0 560 560" width="560" height="560" role="img">
  <defs>
    <linearGradient id="pg" x1="0" y1="0" x2="1" y2="1">
      <stop offset="0" stop-color="#FFF6D4"/><stop offset=".5" stop-color="#FFD54A"/><stop offset="1" stop-color="#C9931A"/>
    </linearGradient>
    <linearGradient id="pb" x1="0" y1="0" x2="1" y2="1">
      <stop offset="0" stop-color="#2E7CF6"/><stop offset="1" stop-color="#123C7B"/>
    </linearGradient>
    <radialGradient id="pc" cx=".5" cy=".5" r=".5">
      <stop offset="0" stop-color="#2E7CF6" stop-opacity=".6"/><stop offset="1" stop-color="#2E7CF6" stop-opacity="0"/>
    </radialGradient>
  </defs>
  <circle cx="280" cy="280" r="240" fill="url(#pc)"/>
  <g fill="none" stroke="#FFD54A" stroke-opacity=".3">
    <circle cx="280" cy="280" r="210" stroke-dasharray="3 16"/>
  </g>
  <g transform="translate(280 300) rotate(-10)">
    <rect x="-150" y="-120" width="300" height="180" rx="26" fill="url(#pb)" opacity=".55" transform="translate(24 26)"/>
    <path d="M-160-100h320v52a26 26 0 0 0 0 52v52h-320v-52a26 26 0 0 0 0-52z" fill="url(#pg)"/>
    <path d="M20-100v208" stroke="#071321" stroke-opacity=".3" stroke-width="4" stroke-dasharray="10 12"/>
    <path d="M-88-46 -116 6h16l-10 46 36-56h-18z" fill="#071321" fill-opacity=".7"/>
    <g fill="#071321" fill-opacity=".7">
      <rect x="52" y="-56" width="88" height="16" rx="8"/>
      <rect x="52" y="-24" width="66" height="12" rx="6"/>
      <rect x="52" y="2" width="78" height="12" rx="6"/>
      <rect x="52" y="28" width="54" height="12" rx="6"/>
    </g>
  </g>
  <g fill="#FFD54A">
    <circle cx="110" cy="140" r="6" opacity=".9"/><circle cx="470" cy="180" r="5" opacity=".8"/>
    <circle cx="440" cy="440" r="7" opacity=".85"/><circle cx="120" cy="430" r="4" opacity=".7"/>
  </g>
</svg>
